<?xml version="1.0" standalone="no"?>
<!DOCTYPE svg PUBLIC "-//W3C//DTD SVG 20010904//EN" "http://www.w3.org/TR/2001/REC-SVG-20010904/DTD/svg10.dtd">
<svg
  version="1.0"
  xmlns="http://www.w3.org/2000/svg"
  viewBox="0 0 782.000000 474.000000"
  preserveAspectRatio="xMidYMid meet"
>
  <g
    transform="translate(0.000000,474.000000) scale(0.100000,-0.100000)"
    fill="currentColor"
    stroke="none"
  >
    <path
      d="M1405 4682 c-11 -2 -24 -8 -29 -12 -5 -5 1 -6 13 -3 12 3 21 1 21 -6
0 -6 -14 -11 -31 -11 -16 0 -51 -9 -76 -21 -48 -22 -73 -20 -73 7 0 13 -3 14
-15 4 -8 -7 -15 -23 -15 -35 0 -18 -7 -24 -36 -29 -19 -4 -41 -3 -47 3 -9 7
-32 -5 -77 -39 -36 -27 -71 -50 -77 -50 -7 0 -13 -4 -13 -9 0 -5 -16 -19 -35
-31 -19 -12 -35 -27 -35 -35 0 -7 -16 -25 -35 -39 -25 -19 -35 -35 -35 -54 0
-15 -20 -58 -46 -97 -25 -38 -61 -101 -79 -139 -19 -37 -42 -77 -51 -87 -10
-11 -12 -19 -6 -19 7 0 12 -5 12 -11 0 -6 -10 -10 -22 -9 -41 4 -55 0 -89 -23
-19 -12 -54 -31 -79 -41 -25 -11 -50 -26 -56 -33 -6 -7 -18 -13 -27 -13 -8 0
-36 -9 -60 -19 -25 -11 -48 -17 -50 -14 -7 7 3 33 13 33 4 0 51 25 105 55 53
30 101 55 106 55 5 0 9 5 9 10 0 6 -18 1 -40 -10 -21 -11 -45 -20 -53 -20 -8
0 -26 -10 -40 -23 -15 -12 -69 -45 -119 -71 -154 -82 -162 -88 -176 -140 -6
-25 -12 -53 -12 -60 0 -25 136 -49 403 -71 32 -3 64 -8 70 -11 7 -3 3 2 -7 10
-19 15 -18 16 15 16 19 0 51 3 71 6 31 5 38 4 38 -9 0 -12 -12 -17 -47 -19
-27 -2 52 -4 175 -4 122 -1 225 -4 228 -7 4 -3 17 -2 29 3 16 6 25 5 28 -3 3
-9 9 -9 26 1 12 7 21 8 21 2 0 -5 4 -10 9 -10 8 0 23 67 22 105 0 11 -5 21
-11 23 -12 4 -14 42 -1 42 5 0 11 -6 14 -12 2 -7 5 9 5 37 0 27 -4 55 -9 62
-7 8 -5 14 5 20 9 5 17 32 22 71 6 53 4 62 -9 62 -10 0 -14 6 -11 14 3 8 12
12 20 9 8 -3 14 1 14 11 0 9 -5 15 -11 14 -6 -2 -14 3 -17 11 -3 10 0 12 11 8
17 -6 21 10 33 148 10 117 10 125 3 125 -10 0 -21 -68 -14 -90 3 -10 1 -21 -5
-25 -5 -3 -10 -1 -10 5 0 6 -7 18 -15 26 -19 20 -19 39 1 58 9 10 13 24 9 36
-4 11 1 34 9 51 9 17 13 36 9 42 -3 6 -1 7 5 3 8 -5 12 1 12 17 0 39 78 97
131 97 20 0 21 -4 14 -59 -6 -53 -5 -61 16 -82 25 -25 35 -99 19 -129 -8 -15
-12 -7 -23 55 -2 11 -4 -47 -5 -128 -1 -114 1 -146 11 -141 8 5 8 3 -1 -9 -18
-21 -25 -209 -9 -219 9 -6 7 -16 -6 -39 -13 -24 -15 -34 -6 -40 13 -8 7 -87
-8 -98 -11 -8 -15 -31 -5 -31 5 0 9 -7 9 -15 0 -8 -4 -15 -9 -15 -4 0 -8 -9
-8 -21 0 -11 5 -17 10 -14 6 3 10 1 10 -4 0 -6 -5 -11 -11 -11 -6 0 -8 -7 -5
-16 3 -8 2 -12 -4 -9 -6 3 -10 -1 -10 -10 0 -9 5 -13 10 -10 6 3 10 1 10 -4 0
-6 -5 -11 -11 -11 -6 0 -8 -7 -5 -15 3 -8 9 -22 12 -30 4 -10 0 -15 -10 -15
-18 0 -19 -6 -6 -35 7 -17 9 -17 9 -2 2 32 17 17 29 -29 10 -38 10 -47 -3 -60
-16 -17 -21 -54 -6 -54 5 0 9 -10 9 -22 1 -13 8 -63 16 -113 8 -49 15 -121 15
-158 1 -65 2 -67 21 -57 18 10 20 8 20 -20 0 -21 -4 -30 -12 -27 -17 5 -37
-22 -38 -52 0 -19 3 -21 14 -12 21 17 27 -9 10 -47 -16 -38 -28 -42 -22 -7 3
14 -1 30 -8 36 -10 8 -16 -2 -30 -45 -17 -55 -39 -78 -121 -127 -38 -22 -44
-44 -10 -35 15 3 32 -3 52 -20 29 -24 29 -25 5 -18 -24 6 -24 6 -5 -10 11 -8
26 -16 33 -16 6 0 12 -5 12 -12 0 -6 3 -9 6 -5 3 3 17 -5 31 -19 13 -13 29
-24 35 -24 6 0 74 -63 151 -140 77 -77 144 -140 149 -140 5 0 16 -7 24 -15 10
-9 11 -15 4 -15 -6 0 -2 -13 10 -30 12 -16 26 -30 33 -30 6 0 1 9 -12 21 -12
12 -20 24 -16 27 3 4 23 -11 43 -33 29 -30 38 -35 40 -22 4 20 27 22 41 5 50
-61 63 -80 57 -85 -3 -4 -7 -4 -9 -2 -2 2 -16 21 -31 43 l-29 39 -14 -26 c-9
-19 -18 -24 -31 -20 -9 3 -5 -4 11 -16 15 -13 25 -26 22 -31 -3 -4 1 -13 9
-19 14 -12 18 -131 5 -131 -4 0 -5 -25 -3 -55 2 -33 -1 -55 -7 -55 -7 0 -8
-15 -4 -41 5 -30 3 -44 -6 -50 -11 -6 -11 -11 -2 -20 9 -9 8 -15 -3 -26 -18
-18 -19 -47 -1 -37 10 6 10 4 0 -7 -16 -16 -17 -46 -2 -51 7 -2 4 -15 -9 -37
-13 -21 -22 -28 -25 -19 -3 7 -6 4 -6 -8 -1 -15 5 -21 16 -20 12 1 19 -7 21
-22 3 -20 0 -23 -17 -17 -12 4 -21 2 -21 -4 0 -6 7 -11 15 -11 20 0 19 -25 -2
-50 -25 -29 -32 -257 -9 -266 9 -3 16 -10 16 -15 0 -4 -7 -6 -15 -3 -11 5 -15
-1 -15 -22 0 -22 3 -25 10 -14 5 8 12 11 16 7 4 -3 2 -12 -3 -19 -15 -20 -24
-50 -13 -43 6 3 10 -5 10 -19 0 -14 -4 -26 -10 -26 -5 0 -10 -9 -10 -19 0 -11
-7 -27 -16 -35 -14 -15 -14 -16 0 -16 9 0 16 -4 16 -10 0 -13 70 -13 90 0 12
8 12 10 1 10 -10 0 -11 3 -3 13 13 15 66 22 57 7 -3 -6 -2 -10 3 -10 5 0 15
12 21 28 14 33 53 61 59 43 3 -9 7 -9 17 -1 8 6 12 17 9 25 -3 7 -1 16 5 20 6
3 11 1 11 -4 0 -19 22 -12 27 9 3 11 9 21 14 21 5 1 15 2 22 3 6 0 12 8 12 16
0 8 -6 14 -12 13 -7 -2 -13 2 -13 8 0 6 7 9 15 5 11 -4 16 2 17 19 3 50 6 81
14 150 5 39 8 98 9 133 0 34 3 62 8 62 12 0 8 58 -5 63 -10 4 -10 8 1 15 7 5
15 29 17 53 2 24 6 78 9 119 3 41 7 86 10 100 2 14 16 165 30 335 14 171 30
339 36 375 6 36 10 87 8 113 -2 26 -1 47 3 47 4 0 7 19 7 43 -1 71 1 86 10 92
10 5 3 35 -19 90 -7 17 -14 24 -17 18 -8 -21 -19 -15 -21 12 -1 14 3 25 8 25
6 0 10 11 10 25 0 16 -6 25 -15 25 -12 0 -16 11 -16 43 0 23 0 66 0 94 -1 29
2 61 6 70 5 10 7 29 7 43 -2 23 -1 23 8 5 6 -14 8 -4 3 33 -3 33 -2 52 5 52 5
0 9 15 7 34 -2 22 3 41 14 53 10 10 16 24 14 30 -3 7 1 22 8 35 8 13 12 26 11
30 -3 13 18 61 25 54 4 -4 16 17 28 46 12 29 18 55 13 59 -4 3 -3 21 2 39 6
19 10 51 10 70 0 20 7 45 15 57 12 17 14 41 10 115 -7 117 -25 214 -36 196 -6
-8 -7 0 -3 19 5 25 0 39 -20 66 -16 21 -23 38 -17 41 15 10 -56 142 -101 188
-21 21 -38 42 -38 47 0 8 -54 60 -75 73 -7 4 -10 -13 -9 -50 1 -31 -4 -71 -11
-89 -7 -17 -11 -34 -7 -37 11 -12 12 -47 2 -66 -14 -26 -19 -107 -10 -142 6
-19 5 -30 -5 -35 -7 -5 -14 -31 -16 -60 -2 -28 -1 -49 4 -46 9 5 9 -10 1 -31
-3 -9 -11 -13 -18 -9 -6 4 -3 -5 7 -21 13 -20 17 -38 13 -64 -6 -35 -17 -135
-19 -174 -1 -10 -9 -18 -20 -18 -10 0 -16 -4 -13 -8 3 -4 0 -26 -5 -48 -6 -21
-10 -52 -10 -68 1 -15 -4 -35 -10 -42 -6 -8 -9 -21 -5 -29 3 -8 1 -15 -5 -15
-5 0 -9 -15 -9 -32 1 -42 -4 -70 -14 -86 -4 -7 -10 -40 -12 -74 -3 -34 -8 -66
-10 -70 -3 -5 0 -15 6 -23 7 -8 8 -15 3 -15 -14 0 -39 -123 -27 -127 14 -5 4
-76 -12 -88 -7 -5 -16 -31 -19 -58 -7 -43 -6 -47 11 -41 15 6 17 4 7 -6 -6 -7
-10 -18 -9 -24 2 -6 1 -8 -1 -3 -22 38 -35 -40 -49 -303 -12 -207 -11 -273 4
-277 7 -3 12 -24 12 -58 0 -49 -2 -52 -24 -52 -18 0 -32 11 -49 36 -13 20 -46
57 -71 83 -26 26 -45 52 -41 58 3 5 1 10 -5 10 -15 0 -41 25 -99 100 -28 36
-63 78 -76 95 -14 16 -25 33 -25 37 0 14 20 9 26 -7 4 -8 12 -15 19 -15 7 0
15 -9 18 -21 7 -28 33 -18 29 11 -1 16 2 21 13 16 19 -7 20 22 1 46 -15 20
-11 125 6 145 6 8 7 18 2 26 -13 18 -10 52 4 49 7 -1 12 2 12 8 0 5 -5 10 -11
10 -6 0 -9 14 -7 33 2 17 8 31 14 30 15 -3 25 35 12 43 -7 4 -6 9 1 13 20 13
24 66 7 84 -18 18 -22 77 -5 77 7 0 9 -10 5 -25 -4 -14 -2 -25 4 -25 11 0 12
2 15 40 1 14 5 48 8 75 4 28 9 88 12 135 3 47 10 99 15 115 10 30 10 40 10
145 0 30 6 57 12 61 6 4 8 14 3 25 -10 23 -8 93 5 244 6 63 13 142 16 175 2
33 11 110 19 170 9 61 18 130 21 153 3 24 8 54 11 65 8 32 12 110 6 138 -2 14
-18 32 -34 41 -16 10 -29 24 -29 33 0 10 5 13 12 9 7 -4 8 -3 4 4 -4 7 -13 12
-21 12 -8 0 -29 9 -48 20 -43 26 -118 32 -133 12 -11 -15 -39 -8 -30 7 5 8
-20 10 -49 3z m-285 -121 c0 -17 -18 -21 -24 -6 -3 9 0 15 9 15 8 0 15 -4 15
-9z m595 -123 c-8 -76 -14 -100 -24 -94 -10 6 -2 116 10 138 17 32 21 19 14
-44z m-535 13 c0 -14 -18 -23 -30 -16 -6 4 -8 11 -5 16 8 12 35 12 35 0z m188
-252 c-3 -8 -7 -3 -11 10 -4 17 -3 21 5 13 5 -5 8 -16 6 -23z m-235 -30 c-8
-31 -20 -22 -15 12 3 19 7 26 12 19 4 -7 5 -21 3 -31z m237 -49 c0 -27 -4 -50
-8 -50 -5 0 -8 19 -6 43 2 52 3 57 9 57 3 0 5 -22 5 -50z m-253 -2 c-3 -8 -6
-5 -6 6 -1 11 2 17 5 13 3 -3 4 -12 1 -19z m53 -27 c0 -6 -4 -13 -10 -16 -5
-3 -10 1 -10 9 0 9 5 16 10 16 6 0 10 -4 10 -9z m-60 -37 c0 -8 -5 -12 -10 -9
-6 4 -8 11 -5 16 9 14 15 11 15 -7z m-410 -32 c0 -15 -28 -47 -35 -40 -11 11
5 48 21 48 8 0 14 -4 14 -8z m1640 -28 c0 -8 -5 -12 -10 -9 -6 4 -8 11 -5 16
9 14 15 11 15 -7z m-1250 -30 c0 -14 -4 -23 -9 -20 -5 3 -7 15 -4 26 7 28 13
25 13 -6z m1253 -14 c3 -11 1 -20 -4 -20 -5 0 -9 9 -9 20 0 11 2 20 4 20 2 0
6 -9 9 -20z m-1253 -40 c0 -5 -4 -10 -10 -10 -5 0 -10 5 -10 10 0 6 5 10 10
10 6 0 10 -4 10 -10z m1260 1 c0 -6 -4 -13 -10 -16 -5 -3 -10 1 -10 9 0 9 5
16 10 16 6 0 10 -4 10 -9z m-719 -34 c-10 -9 -11 -8 -5 6 3 10 9 15 12 12 3
-3 0 -11 -7 -18z m0 -54 c-9 -16 -10 -14 -11 12 0 21 3 26 11 18 8 -8 8 -16 0
-30z m-567 -27 c-8 -34 -12 -59 -13 -81 -1 -16 -3 -17 -10 -6 -5 8 -7 21 -4
28 6 14 9 36 12 76 0 10 6 15 11 12 6 -3 8 -16 4 -29z m559 -58 c-10 -19 -21
-6 -18 20 5 39 6 40 14 12 5 -14 6 -28 4 -32z m0 -37 c8 -30 -4 -115 -17 -126
-7 -5 -16 -22 -19 -36 -14 -54 -37 -256 -38 -336 -2 -77 -10 -101 -22 -70 -7
19 2 176 14 228 6 25 12 61 13 80 5 51 27 151 38 176 6 11 8 26 4 31 -8 13 4
72 14 72 4 0 10 -9 13 -19z m-783 -91 c0 -5 -6 -10 -14 -10 -8 0 -18 5 -21 10
-3 6 3 10 14 10 12 0 21 -4 21 -10z m1150 -135 c0 -14 -4 -25 -10 -25 -11 0
-14 33 -3 43 11 11 13 8 13 -18z m-620 -245 c0 -5 -4 -10 -10 -10 -5 0 -10 5
-10 10 0 6 5 10 10 10 6 0 10 -4 10 -10z m10 -65 c0 -8 -4 -15 -10 -15 -5 0
-10 7 -10 15 0 8 5 15 10 15 6 0 10 -7 10 -15z m7 -41 c3 -8 1 -20 -4 -25 -7
-7 -12 -2 -15 15 -6 28 9 36 19 10z m196 -35 c-8 -29 -13 -23 -13 14 0 22 3
28 9 18 5 -7 6 -22 4 -32z m-128 -88 c3 -5 1 -12 -5 -16 -5 -3 -10 1 -10 9 0
18 6 21 15 7z m425 -140 c0 -6 -4 -13 -10 -16 -5 -3 -10 1 -10 9 0 9 5 16 10
16 6 0 10 -4 10 -9z m320 -1 c0 -5 -2 -10 -4 -10 -3 0 -8 5 -11 10 -3 6 -1 10
4 10 6 0 11 -4 11 -10z m-790 -59 c0 -6 -4 -13 -10 -16 -5 -3 -10 1 -10 9 0 9
5 16 10 16 6 0 10 -4 10 -9z m445 -97 c1 -13 -3 -23 -8 -21 -5 1 -8 6 -8 10 1
4 1 17 1 29 0 29 15 12 15 -18z m-5 -51 c0 -10 -5 -25 -10 -33 -7 -11 -10 -7
-10 18 0 17 5 32 10 32 6 0 10 -8 10 -17z m-14 -100 c-11 -11 -17 4 -9 23 7
18 8 18 11 1 2 -10 1 -21 -2 -24z m-436 -88 c13 -14 21 -27 18 -30 -2 -3 -17
9 -33 25 -16 17 -24 30 -19 30 6 0 21 -11 34 -25z m60 -65 c11 -11 20 -22 20
-25 0 -3 9 -16 21 -28 39 -41 111 -138 106 -143 -8 -8 -122 117 -119 130 1 7
-11 25 -28 41 -27 26 -38 45 -25 45 3 0 14 -9 25 -20z m380 -467 c0 -20 -3
-24 -11 -16 -7 7 -9 19 -6 27 10 24 17 19 17 -11z m30 -62 c13 -25 13 -34 0
-26 -16 10 -32 45 -21 45 6 0 15 -9 21 -19z m-90 -653 c-1 -28 -2 -30 -11 -15
-6 10 -8 25 -5 33 9 24 16 16 16 -18z m-9 -119 l-9 -34 -1 37 c-1 20 2 45 6
55 7 16 8 16 11 -3 2 -12 -1 -37 -7 -55z m-1 -79 c0 -5 -4 -10 -10 -10 -5 0
-10 5 -10 10 0 6 5 10 10 10 6 0 10 -4 10 -10z m34 -185 c-4 -8 -11 -12 -16
-9 -6 4 -5 10 3 15 19 12 19 11 13 -6z"
    />
    <path d="M1722 4595 c15 -16 30 -26 33 -23 4 3 -9 16 -27 28 l-33 23 27 -28z" />
    <path d="M1671 3774 c0 -11 3 -14 6 -6 3 7 2 16 -1 19 -3 4 -6 -2 -5 -13z" />
    <path
      d="M3766 3193 l-8 -33 -85 7 c-64 5 -84 3 -79 -5 4 -7 14 -12 22 -12 8
0 12 -4 9 -10 -4 -6 -19 -4 -41 5 -25 10 -41 12 -54 5 -26 -14 -30 -13 -30 10
0 11 7 20 15 20 8 0 15 5 15 10 0 15 -36 12 -50 -5 -10 -12 -10 -15 0 -15 10
0 10 -3 1 -14 -7 -8 -14 -32 -17 -53 -2 -21 -11 -76 -19 -122 -8 -46 -12 -88
-9 -93 3 -5 1 -14 -4 -21 -5 -7 -15 -50 -22 -97 -6 -47 -15 -112 -20 -145 -43
-293 -78 -608 -79 -694 0 -30 1 -32 14 -15 7 11 9 21 4 22 -5 2 -6 9 -2 15 4
6 8 20 9 31 1 12 4 50 8 86 4 36 11 110 16 165 26 259 36 325 50 325 10 0 6
-183 -5 -200 -3 -4 -7 -41 -9 -82 -14 -236 -27 -415 -32 -431 -3 -10 -7 -30
-9 -45 -17 -144 -17 -155 -4 -164 11 -8 10 -9 -3 -4 -13 4 -18 0 -18 -13 0
-11 6 -22 13 -24 9 -4 9 -7 -1 -14 -7 -5 -17 -45 -22 -89 -6 -43 -13 -91 -16
-106 -5 -22 -3 -28 10 -28 9 0 16 -7 16 -16 0 -10 -6 -14 -15 -10 -12 4 -15
-3 -15 -32 -1 -20 -5 -56 -9 -80 -5 -23 -5 -45 -1 -47 17 -11 1 -73 -26 -100
-25 -25 -26 -29 -11 -39 12 -10 14 -20 7 -49 -4 -20 -5 -37 -2 -37 3 0 1 -5
-5 -11 -7 -7 -8 -21 -3 -38 4 -15 6 -38 5 -52 -1 -13 -3 -30 -4 -36 0 -7 -6
-13 -12 -13 -6 0 -8 9 -4 23 5 17 4 19 -4 7 -15 -21 -14 -40 2 -40 10 0 14
-14 13 -46 -1 -35 -4 -44 -16 -41 -11 3 -17 -3 -18 -17 0 -11 2 -16 6 -11 4 6
13 11 21 13 9 2 11 -2 6 -15 -4 -10 -8 -26 -9 -35 0 -10 -6 -18 -13 -18 -6 0
-14 -4 -17 -9 -3 -5 2 -8 12 -7 10 0 16 -5 13 -14 -4 -18 -12 -114 -15 -185
-3 -65 -15 -105 -32 -105 -8 0 -14 -4 -14 -10 0 -5 6 -7 14 -4 16 6 27 -28 15
-47 -5 -8 -3 -17 4 -21 8 -5 7 -8 -4 -8 -22 0 -16 -58 7 -75 10 -7 14 -17 10
-23 -5 -8 1 -12 16 -12 13 0 68 -7 124 -16 63 -11 116 -14 140 -9 36 7 37 8
16 16 -23 9 -24 11 -17 101 4 51 10 128 15 170 4 42 6 90 4 105 -2 15 1 66 6
113 17 148 19 221 5 226 -7 3 -10 17 -7 35 3 21 9 29 18 25 8 -3 14 -1 14 3 0
5 -7 11 -15 15 -21 8 -19 38 3 34 13 -2 17 5 19 37 2 29 0 35 -6 20 -4 -11 -6
-26 -4 -32 3 -7 0 -13 -7 -13 -9 0 -10 28 -5 118 4 64 6 134 6 155 -2 35 0 37
23 33 24 -4 24 -3 14 22 -7 15 -15 31 -20 36 -11 13 -10 56 1 56 5 0 7 -9 4
-20 -3 -11 -1 -20 5 -20 11 0 11 64 -1 76 -12 12 -8 36 10 56 15 17 15 18 0
18 -20 0 -22 14 -4 32 8 7 12 19 9 26 -2 6 1 12 6 12 7 0 9 19 6 48 -3 38 0
52 20 77 21 26 26 28 49 18 30 -14 79 -83 103 -144 9 -24 21 -48 26 -53 4 -6
8 -18 8 -27 0 -10 12 -24 27 -31 18 -9 30 -27 39 -58 16 -54 17 -60 4 -60 -5
0 -13 12 -16 26 -4 16 -9 22 -14 14 -10 -16 11 -59 33 -66 11 -3 17 -15 17
-32 -1 -24 -2 -25 -11 -8 -9 15 -13 16 -20 5 -14 -22 -11 -42 6 -35 8 3 15 1
15 -5 0 -6 6 -9 13 -6 8 3 12 -8 12 -39 0 -24 2 -44 6 -44 4 0 9 -9 12 -19 3
-15 1 -18 -11 -14 -13 5 -14 0 -7 -38 4 -24 8 -52 8 -61 1 -10 4 -18 8 -18 12
0 17 24 8 46 -8 22 -4 31 21 51 14 11 16 -1 13 -110 -1 -67 -2 -125 -3 -129 0
-5 -5 -8 -11 -8 -6 0 -9 7 -5 15 5 15 -5 21 -17 9 -9 -9 16 -44 30 -44 21 0
15 -17 -9 -23 -16 -5 -19 -9 -10 -19 8 -10 9 -39 3 -98 -5 -46 -7 -90 -4 -97
3 -7 2 -21 -2 -30 -8 -19 -9 -23 -20 -95 -5 -33 -4 -52 5 -63 17 -21 5 -52
-14 -36 -19 16 -32 -5 -15 -25 7 -8 12 -45 13 -89 0 -69 1 -74 24 -80 16 -4
28 0 37 11 6 9 16 14 22 11 9 -6 83 7 113 20 8 3 18 6 22 5 4 -1 43 7 88 19
82 20 106 18 96 -7 -3 -8 -1 -14 4 -14 6 0 10 6 10 14 0 8 3 21 6 30 5 13 -1
16 -27 16 -37 0 -29 17 11 23 23 4 25 9 26 53 1 67 -10 80 -16 20 -7 -69 -26
-70 -23 -1 1 30 -1 65 -6 77 -4 13 -4 36 0 53 7 25 18 213 19 333 0 25 4 32
20 32 11 0 20 7 20 15 0 18 -16 20 -23 3 -3 -7 -6 5 -6 27 -1 29 2 36 9 25 13
-20 12 70 -1 170 -5 41 -12 96 -13 121 -5 60 -14 89 -29 86 -6 -1 -13 6 -15
17 -3 13 0 16 8 11 10 -6 11 -1 6 20 -4 15 -10 41 -13 57 -3 17 -9 25 -13 18
-10 -16 -40 -1 -40 20 0 52 -125 281 -144 263 -8 -9 -56 37 -56 54 0 16 -52
64 -81 75 -12 5 -22 2 -27 -8 -7 -13 -16 -13 -76 2 l-67 17 38 36 c134 125
174 161 202 182 22 16 28 25 19 31 -9 6 1 20 34 51 26 23 52 54 58 70 9 25 28
37 31 20 1 -5 3 -23 5 -42 2 -19 6 -36 8 -38 2 -2 17 10 34 27 21 21 38 29 54
27 13 -2 17 -2 11 0 -7 3 -13 15 -13 28 0 29 21 47 40 35 24 -15 33 -12 70 22
19 18 40 31 47 30 7 -2 14 17 19 45 3 26 22 129 41 228 47 251 62 334 68 391
5 43 4 47 -8 34 -8 -8 -18 -40 -21 -70 -6 -50 -19 -81 -30 -69 -2 2 2 33 10
69 18 85 10 133 -27 164 -32 27 -39 52 -11 41 9 -4 31 -11 47 -15 17 -4 46
-15 65 -25 20 -10 30 -12 23 -4 -7 7 -13 23 -13 36 0 20 -3 22 -18 12 -14 -9
-39 -7 -108 9 -49 11 -113 23 -142 27 -45 6 -51 5 -46 -9 3 -9 2 -22 -4 -29
-6 -6 -10 -14 -10 -17 0 -13 -14 -68 -24 -90 -9 -23 -10 -23 -20 -6 -7 13 -7
20 1 25 6 4 13 29 16 55 3 26 10 56 15 67 11 20 11 20 -38 25 -19 1 -35 -3
-37 -9 -6 -22 -44 -202 -55 -267 -6 -36 -15 -83 -21 -105 -5 -22 -10 -58 -13
-80 -2 -22 -6 -47 -9 -55 -3 -8 -10 -49 -15 -91 -6 -62 -5 -76 5 -72 19 8 16
-11 -6 -31 -14 -13 -21 -38 -26 -99 -4 -45 -9 -94 -10 -109 -3 -19 1 -28 11
-28 21 0 17 -18 -8 -40 -13 -11 -40 -35 -61 -54 -21 -19 -41 -36 -46 -38 -4
-2 -29 -27 -54 -56 -26 -29 -47 -50 -47 -46 0 4 -9 -1 -20 -11 -11 -10 -20
-22 -20 -28 0 -12 -77 -87 -90 -87 -6 0 -10 -6 -10 -14 0 -7 -7 -19 -16 -27
-13 -10 -17 -10 -24 0 -6 11 -9 11 -13 0 -4 -11 -7 -12 -18 -1 -11 11 -10 14
8 18 16 5 23 16 28 47 3 23 8 54 11 70 4 20 2 27 -10 27 -9 0 -16 4 -16 10 0
5 7 7 15 4 9 -4 15 0 15 10 0 9 -5 16 -11 16 -8 0 -8 4 -1 13 5 6 13 27 17 44
5 28 4 32 -9 27 -11 -4 -16 -1 -16 11 0 11 5 15 15 12 8 -4 17 -2 20 3 4 6 -1
10 -9 10 -20 0 -21 26 -2 33 20 8 26 -14 26 -95 0 -39 3 -69 6 -65 7 6 9 26
19 167 12 175 12 191 3 196 -7 4 -7 9 0 13 6 3 13 42 16 86 3 44 10 118 16
165 5 47 16 148 25 225 8 77 19 165 23 195 4 30 5 73 2 95 l-6 40 -8 -32z
m419 -33 c-5 -8 -11 -8 -17 -2 -6 6 -7 16 -3 22 5 8 11 8 17 2 6 -6 7 -16 3
-22z m203 -27 c-2 -10 -13 -19 -26 -21 -22 -3 -28 -27 -24 -84 1 -10 -3 -18
-8 -18 -15 0 -32 51 -24 69 4 9 8 22 10 29 7 34 15 42 44 42 25 0 31 -4 28
-17z m-640 -85 c1 -35 -6 -108 -15 -163 -8 -55 -16 -112 -17 -127 -2 -35 -16
-49 -17 -17 -1 13 -1 28 0 33 7 33 2 91 -8 94 -7 2 -6 9 4 19 8 8 16 30 17 49
4 87 18 174 28 174 4 0 8 -28 8 -62z m-69 43 c21 -14 4 -33 -19 -21 -25 13
-30 13 -30 -5 0 -8 -6 -15 -14 -15 -9 0 -12 8 -8 25 3 19 10 25 31 25 14 0 32
-4 40 -9z m756 -21 c3 -5 1 -10 -4 -10 -6 0 -11 5 -11 10 0 6 2 10 4 10 3 0 8
-4 11 -10z m-845 -51 c0 -5 -4 -9 -10 -9 -5 0 -10 7 -10 16 0 8 5 12 10 9 6
-3 10 -10 10 -16z m77 -1 c-3 -8 -6 -5 -6 6 -1 11 2 17 5 13 3 -3 4 -12 1 -19z
m553 -43 c0 -14 -4 -25 -10 -25 -11 0 -14 33 -3 43 11 11 13 8 13 -18z m-550
5 c0 -5 -4 -10 -10 -10 -5 0 -10 5 -10 10 0 6 5 10 10 10 6 0 10 -4 10 -10z
m640 -10 c0 -19 -11 -26 -23 -14 -8 8 3 34 14 34 5 0 9 -9 9 -20z m-36 -5 c-6
-16 -24 -21 -24 -7 0 11 11 22 21 22 5 0 6 -7 3 -15z m-617 -102 c-16 -186
-28 -266 -42 -261 -5 1 -9 10 -8 18 9 68 17 174 16 218 0 28 4 52 8 52 5 0 9
8 9 18 0 18 8 32 18 32 3 0 2 -35 -1 -77z m653 67 c0 -5 -4 -10 -10 -10 -5 0
-10 5 -10 10 0 6 5 10 10 10 6 0 10 -4 10 -10z m-730 -20 c0 -5 -2 -10 -4 -10
-3 0 -8 5 -11 10 -3 6 -1 10 4 10 6 0 11 -4 11 -10z m740 -15 c0 -16 -27 -32
-37 -21 -7 7 16 36 28 36 5 0 9 -7 9 -15z m30 5 c0 -5 -5 -10 -11 -10 -5 0 -7
5 -4 10 3 6 8 10 11 10 2 0 4 -4 4 -10z m-154 -20 c0 -11 -4 -20 -8 -20 -4 0
-8 9 -8 20 0 11 4 20 8 20 4 0 8 -9 8 -20z m144 -31 c0 -13 -28 -18 -33 -6 -3
7 3 13 14 13 11 0 19 -3 19 -7z m-76 -14 c-4 -8 -8 -15 -10 -15 -2 0 -4 7 -4
15 0 8 4 15 10 15 5 0 7 -7 4 -15z m226 -14 c0 -16 -7 -34 -16 -42 -13 -11
-14 -9 -8 17 4 16 7 34 7 41 0 7 4 13 9 13 4 0 8 -13 8 -29z m-920 -61 c0 -5
-5 -10 -11 -10 -5 0 -7 5 -4 10 3 6 8 10 11 10 2 0 4 -4 4 -10z m620 0 c0 -5
-2 -10 -4 -10 -3 0 -8 5 -11 10 -3 6 -1 10 4 10 6 0 11 -4 11 -10z m80 -19 c0
-14 -18 -23 -31 -15 -8 4 -7 9 2 15 18 11 29 11 29 0z m39 -7 c7 5 11 -4 11
-23 0 -17 -4 -31 -10 -31 -5 0 -10 7 -10 15 0 8 -4 15 -10 15 -5 0 -10 10 -10
23 0 16 3 18 9 8 5 -7 14 -10 20 -7z m-145 0 c23 -9 20 -24 -4 -24 -11 0 -20
7 -20 15 0 17 2 18 24 9z m-467 -46 c-3 -8 -6 -5 -6 6 -1 11 2 17 5 13 3 -3 4
-12 1 -19z m-257 2 c0 -5 -4 -10 -10 -10 -5 0 -10 5 -10 10 0 6 5 10 10 10 6
0 10 -4 10 -10z m730 -50 c0 -5 -9 -10 -20 -10 -11 0 -20 5 -20 10 0 6 9 10
20 10 11 0 20 -4 20 -10z m140 3 c-1 -18 -18 -35 -24 -24 -4 6 -4 16 -1 21 7
12 25 13 25 3z m-875 -23 c-2 -23 -23 -56 -31 -48 -4 4 -1 14 5 22 8 10 9 16
1 21 -16 10 -12 21 8 21 10 0 18 -7 17 -16z m270 10 c3 -5 2 -10 -4 -10 -6 0
-8 -7 -5 -15 4 -8 1 -15 -5 -15 -6 0 -11 11 -11 25 0 25 14 33 25 15z m585
-140 c0 -5 -4 -10 -10 -10 -5 0 -10 5 -10 10 0 6 5 10 10 10 6 0 10 -4 10 -10z
m53 -10 c-3 -11 -9 -17 -15 -14 -5 3 -4 12 3 20 16 19 18 18 12 -6z m-123 -22
c0 -6 -6 -5 -15 2 -8 7 -15 14 -15 16 0 2 7 1 15 -2 8 -4 15 -11 15 -16z m-90
2 c0 -5 -4 -10 -10 -10 -5 0 -10 5 -10 10 0 6 5 10 10 10 6 0 10 -4 10 -10z
m-455 -51 c11 -17 -1 -21 -15 -4 -8 9 -8 15 -2 15 6 0 14 -5 17 -11z m-5 -59
c0 -5 -4 -10 -10 -10 -5 0 -10 5 -10 10 0 6 5 10 10 10 6 0 10 -4 10 -10z
m-80 -24 c0 -8 -4 -18 -10 -21 -5 -3 -10 3 -10 14 0 12 5 21 10 21 6 0 10 -6
10 -14z m500 -30 c0 -9 -10 -13 -25 -12 -29 1 -33 12 -7 19 29 8 32 7 32 -7z
m-416 -12 c3 -9 6 -27 6 -40 0 -18 -5 -24 -22 -23 -13 0 -17 3 -10 6 14 6 17
43 2 43 -5 0 -7 7 -4 15 8 19 20 19 28 -1z m596 -4 c0 -5 -5 -10 -11 -10 -5 0
-7 5 -4 10 3 6 8 10 11 10 2 0 4 -4 4 -10z m-697 -75 c-7 -21 -13 -19 -13 6 0
11 4 18 10 14 5 -3 7 -12 3 -20z m437 -110 c0 -8 -5 -15 -11 -15 -6 0 -17 -7
-25 -15 -28 -28 -33 -15 -6 15 29 33 42 38 42 15z m-460 -31 c0 -8 -5 -12 -10
-9 -6 4 -8 11 -5 16 9 14 15 11 15 -7z m-4 -124 c-7 -113 -14 -150 -28 -150
-6 0 -7 31 -3 83 4 45 8 96 9 113 2 30 12 54 23 54 3 0 3 -45 -1 -100z m374
80 c0 -5 -5 -10 -11 -10 -5 0 -7 5 -4 10 3 6 8 10 11 10 2 0 4 -4 4 -10z m-42
-39 c3 -8 -1 -12 -9 -9 -7 2 -15 10 -17 17 -3 8 1 12 9 9 7 -2 15 -10 17 -17z
m-267 -34 c-1 -12 -15 -9 -19 4 -3 6 1 10 8 8 6 -3 11 -8 11 -12z m179 -169
c0 -6 -9 -8 -20 -5 -22 6 -26 -3 -10 -19 12 -12 3 -44 -12 -44 -6 0 -7 7 -4
16 4 11 -1 18 -14 21 -27 7 -25 21 5 35 14 6 25 16 25 21 0 5 7 4 15 -3 8 -7
15 -17 15 -22z m-380 -28 c0 -5 -5 -10 -11 -10 -5 0 -7 5 -4 10 3 6 8 10 11
10 2 0 4 -4 4 -10z m418 -105 c3 -11 0 -15 -7 -10 -6 3 -9 10 -6 15 3 4 0 11
-5 13 -6 3 -5 4 2 3 7 -1 15 -11 16 -21z m220 -30 c-3 -3 -9 2 -12 12 -6 14
-5 15 5 6 7 -7 10 -15 7 -18z m-28 -37 c0 -13 -23 -5 -28 10 -2 7 2 10 12 6 9
-3 16 -11 16 -16z m100 -113 c0 -8 -4 -15 -10 -15 -5 0 -10 7 -10 15 0 8 5 15
10 15 6 0 10 -7 10 -15z m4 -212 c4 -13 3 -23 -2 -23 -13 0 -32 47 -31 78 l1
27 13 -30 c7 -16 16 -40 19 -52z m-36 -14 c-2 -6 -8 -10 -13 -10 -5 0 -11 4
-13 10 -2 6 4 11 13 11 9 0 15 -5 13 -11z m-68 -3 c0 -2 -7 -7 -16 -10 -8 -3
-12 -2 -9 4 6 10 25 14 25 6z m-57 -102 c-3 -8 -9 -14 -13 -14 -10 0 -20 37
-12 44 9 10 31 -15 25 -30z m227 -24 c0 -5 -4 -10 -10 -10 -5 0 -10 5 -10 10
0 6 5 10 10 10 6 0 10 -4 10 -10z m-40 -226 c0 -16 -16 -19 -25 -4 -8 13 4 32
16 25 5 -4 9 -13 9 -21z m-70 6 c0 -5 -4 -10 -10 -10 -5 0 -10 5 -10 10 0 6 5
10 10 10 6 0 10 -4 10 -10z m140 0 c0 -5 -4 -10 -10 -10 -5 0 -10 5 -10 10 0
6 5 10 10 10 6 0 10 -4 10 -10z m-63 -76 c3 -9 0 -20 -8 -25 -23 -14 -29 -11
-29 16 0 28 27 35 37 9z m-17 -69 c0 -17 -43 -32 -48 -16 -7 22 -19 10 -20
-20 -1 -33 -22 -68 -22 -37 0 65 31 102 57 68 11 -13 12 -12 13 8 0 13 4 20
10 17 6 -3 10 -12 10 -20z m60 -80 c1 -38 1 -72 0 -75 -1 -5 -9 -68 -14 -120
-2 -14 -7 -34 -11 -45 -19 -43 -22 32 -6 177 16 155 29 180 31 63z m-52 36
c-7 -11 -16 -17 -21 -14 -4 3 0 11 10 19 24 18 25 17 11 -5z m-11 -62 c-1 -20
-21 -26 -31 -10 -4 5 -3 16 0 24 8 21 33 10 31 -14z m-67 1 c0 -5 -5 -10 -11
-10 -5 0 -7 5 -4 10 3 6 8 10 11 10 2 0 4 -4 4 -10z m162 -32 c-7 -7 -12 -8
-12 -2 0 14 12 26 19 19 2 -3 -1 -11 -7 -17z m-106 -26 c1 -13 -5 -22 -12 -22
-8 0 -14 11 -14 26 0 31 24 28 26 -4z m-626 -14 c0 -16 -3 -19 -11 -11 -6 6
-8 16 -5 22 11 17 16 13 16 -11z m620 -61 c0 -24 -3 -28 -10 -17 -13 20 -13
63 0 55 6 -3 10 -21 10 -38z m-7 -137 c-3 -11 -9 -20 -14 -20 -5 0 -9 9 -9 20
0 11 6 20 14 20 9 0 12 -7 9 -20z m67 -18 c0 -13 -12 -22 -22 -16 -10 6 -1 24
13 24 5 0 9 -4 9 -8z m7 -106 c-6 -15 -55 -27 -62 -16 -3 4 4 10 15 13 11 3
25 18 32 34 11 27 12 27 16 5 2 -13 1 -29 -1 -36z m-858 -67 c-13 -26 -20 -21
-12 9 3 12 9 19 14 16 5 -3 4 -14 -2 -25z m-57 -14 c-2 -14 -8 -25 -13 -25 -5
0 -9 11 -9 25 0 14 6 25 14 25 9 0 12 -8 8 -25z"
    />
    <path d="M3558 3202 c-10 -4 26 -6 78 -5 52 0 98 4 101 7 9 8 -158 6 -179 -2z" />
    <path
      d="M3260 3167 c-19 -6 -38 -15 -41 -20 -4 -5 -15 -4 -28 2 -24 13 -41 7
-41 -14 0 -14 -29 -35 -49 -35 -6 0 -11 8 -11 18 -1 16 -1 16 -11 -1 -7 -12
-17 -16 -30 -12 -13 4 -19 2 -19 -9 0 -9 -5 -16 -11 -16 -6 0 -9 7 -5 15 3 8
1 15 -4 15 -6 0 -10 -6 -10 -14 0 -8 -7 -17 -16 -20 -22 -8 -26 -8 -19 4 3 6
1 10 -4 10 -6 0 -11 -7 -11 -15 0 -33 -84 -40 -103 -8 -7 11 -12 11 -23 2 -11
-9 -14 -7 -14 12 0 30 -14 14 -30 -33 -12 -38 -30 -52 -30 -23 0 8 -4 15 -10
15 -5 0 -10 -9 -10 -19 0 -11 -9 -26 -21 -34 -15 -11 -17 -16 -7 -21 7 -3 3
-3 -9 -1 -12 3 -24 1 -28 -5 -3 -6 -10 -8 -15 -5 -12 7 -87 -33 -93 -49 -3 -8
-20 -16 -39 -20 -42 -8 -90 -49 -82 -70 7 -18 -11 -22 -21 -6 -4 6 -11 7 -17
4 -7 -4 -7 -9 0 -13 7 -4 8 -12 2 -21 -7 -11 -11 -12 -24 0 -9 7 -18 11 -20 9
-14 -16 -63 -355 -66 -459 -5 -118 -2 -140 20 -140 11 0 20 5 20 10 0 6 7 10
15 10 8 0 15 4 15 9 0 5 10 11 23 13 18 2 23 10 25 48 2 25 0 41 -5 37 -8 -8
-9 -12 -11 -54 -3 -41 -21 -24 -20 18 0 33 5 43 20 47 15 4 19 11 15 30 -3 14
2 36 10 48 10 16 12 28 5 39 -10 19 -4 65 8 65 5 0 9 12 9 28 0 15 5 59 11 97
6 39 15 95 19 125 12 88 17 96 55 92 19 -2 37 1 40 7 17 27 28 10 21 -31 -4
-24 -9 -53 -10 -65 -2 -12 -7 -36 -11 -55 -4 -18 -7 -37 -5 -42 1 -5 -3 -22
-8 -37 -7 -20 -7 -29 0 -29 6 0 7 -6 2 -12 -9 -15 -9 -15 -22 -92 -6 -33 -14
-62 -18 -65 -5 -3 -9 -17 -11 -31 -1 -14 -4 -43 -6 -65 -6 -57 -15 -248 -21
-410 -2 -77 -4 -144 -4 -148 -1 -5 -5 -5 -11 -2 -5 3 -10 1 -10 -4 0 -6 5 -11
10 -11 14 0 12 -27 -2 -34 -10 -5 -10 -7 0 -12 13 -6 17 -84 5 -84 -13 0 -7
-158 5 -173 7 -8 9 -17 5 -20 -3 -4 -12 1 -19 11 -12 16 -13 15 -14 -5 0 -13
6 -23 13 -23 8 0 7 -4 -3 -10 -14 -9 -7 -14 15 -11 6 1 3 -4 -6 -11 -11 -9
-16 -30 -16 -68 0 -30 -1 -156 -1 -280 -1 -124 -2 -246 -2 -273 -1 -26 2 -52
6 -59 4 -6 8 -29 10 -52 9 -115 46 -312 61 -326 4 -4 42 -22 83 -40 41 -17 81
-34 89 -37 10 -5 12 0 6 15 -4 13 -2 22 4 22 6 0 13 -11 17 -24 3 -15 18 -29
37 -36 18 -6 40 -16 49 -21 26 -13 36 -11 48 11 12 22 1 138 -22 235 -7 28
-11 56 -9 63 1 7 -3 29 -9 48 -20 60 -38 263 -38 424 1 85 -3 172 -7 193 -5
24 -3 42 4 51 9 11 8 17 -3 29 -11 11 -12 17 -3 26 9 9 8 14 -3 21 -12 8 -12
12 -2 18 13 9 21 126 9 138 -4 4 -7 0 -7 -9 0 -9 -4 -17 -10 -17 -5 0 -10 12
-10 26 0 20 4 25 16 20 13 -5 15 7 14 82 -1 109 16 351 34 502 8 63 12 118 10
122 -2 3 0 17 5 30 4 12 11 48 14 78 14 123 48 297 109 550 33 139 46 172 81
213 23 27 25 28 41 11 11 -11 15 -25 11 -38 -3 -12 -8 -46 -11 -76 -3 -30 -13
-147 -24 -260 -22 -233 -27 -310 -20 -310 2 0 24 7 47 16 33 13 49 14 67 6 28
-12 60 1 107 45 16 15 35 29 42 29 28 3 31 6 9 12 l-22 7 20 40 c11 21 20 58
20 82 0 23 4 44 9 47 4 3 9 36 10 73 1 37 5 91 10 118 6 28 12 86 15 130 3 44
8 104 12 133 l7 52 -39 -1 c-21 -1 -55 -6 -74 -12z m98 -9 c-6 -18 -28 -21
-28 -4 0 9 7 16 16 16 9 0 14 -5 12 -12z m-68 -62 c0 -3 -4 -8 -10 -11 -5 -3
-10 -1 -10 4 0 6 5 11 10 11 6 0 10 -2 10 -4z m-334 -123 c-10 -11 -36 -12
-36 -2 0 5 10 9 22 9 12 0 18 -3 14 -7z m207 -8 c-3 -9 -8 -14 -10 -11 -3 3
-2 9 2 15 9 16 15 13 8 -4z m-425 -66 c-18 -11 -21 -4 -13 28 l7 28 9 -24 c7
-17 6 -27 -3 -32z m-144 -4 c3 -8 1 -15 -3 -15 -5 0 -11 7 -15 15 -3 8 -1 15
3 15 5 0 11 -7 15 -15z m590 0 c-4 -8 -8 -15 -10 -15 -2 0 -4 7 -4 15 0 8 4
15 10 15 5 0 7 -7 4 -15z m-258 -32 c-10 -10 -19 5 -10 18 6 11 8 11 12 0 2
-7 1 -15 -2 -18z m-282 2 c-6 -16 -24 -21 -24 -7 0 11 11 22 21 22 5 0 6 -7 3
-15z m187 -5 c6 0 7 -5 4 -11 -4 -6 -9 -8 -13 -5 -3 3 -10 -1 -16 -10 -10 -13
-12 -11 -14 12 -1 20 2 25 14 20 9 -3 20 -6 25 -6z m-101 -31 c0 -6 -4 -7 -10
-4 -5 3 -10 11 -10 16 0 6 5 7 10 4 6 -3 10 -11 10 -16z m-109 -42 c-13 -13
-15 11 -4 40 7 16 8 15 11 -6 2 -13 -1 -28 -7 -34z m45 16 c-11 -11 -17 4 -9
23 7 18 8 18 11 1 2 -10 1 -21 -2 -24z m248 -12 c-4 -22 -11 -41 -16 -41 -6 0
-7 15 -3 37 13 69 30 72 19 4z m-218 -56 l-14 -50 -1 43 c-1 24 4 53 11 65 18
33 21 1 4 -58z m-34 37 c-7 -2 -12 -13 -12 -25 0 -17 -2 -19 -9 -8 -12 19 6
54 22 44 8 -5 8 -8 -1 -11z m-277 -49 c-4 -21 -7 -46 -6 -55 0 -10 -7 -18 -15
-18 -18 0 -18 9 0 51 7 19 11 40 9 47 -3 6 1 12 7 12 9 0 11 -11 5 -37z m492
-73 c-2 -17 -10 -36 -17 -43 -10 -10 -12 -8 -6 6 3 10 6 30 6 43 0 13 4 24 10
24 5 0 8 -14 7 -30z m-200 -22 c-3 -7 -5 -2 -5 12 0 14 2 19 5 13 2 -7 2 -19
0 -25z m-317 -52 c0 -3 -4 -8 -10 -11 -5 -3 -10 -1 -10 4 0 6 5 11 10 11 6 0
10 -2 10 -4z m380 -34 c0 -15 -2 -15 -10 -2 -13 20 -13 33 0 25 6 -3 10 -14
10 -23z m-390 -37 c0 -8 -4 -15 -10 -15 -5 0 -10 7 -10 15 0 8 5 15 10 15 6 0
10 -7 10 -15z m252 -7 c-7 -7 -12 -8 -12 -2 0 14 12 26 19 19 2 -3 -1 -11 -7
-17z m148 8 c0 -2 -7 -9 -15 -16 -12 -10 -15 -10 -15 4 0 9 7 16 15 16 8 0 15
-2 15 -4z m-408 -48 c6 -16 -1 -38 -12 -38 -4 0 -7 11 -7 25 0 26 12 34 19 13z
m-12 -128 c0 -16 -4 -30 -10 -30 -5 0 -10 14 -10 30 0 17 5 30 10 30 6 0 10
-13 10 -30z m-8 -72 c-15 -15 -26 -4 -18 18 5 13 9 15 18 6 9 -9 9 -15 0 -24z
m293 -58 c3 -5 1 -10 -4 -10 -6 0 -11 5 -11 10 0 6 2 10 4 10 3 0 8 -4 11 -10z
m181 -36 c-10 -26 -35 -313 -41 -468 -4 -82 -10 -157 -15 -165 -11 -19 -11
-32 -11 147 0 81 3 156 7 166 4 10 2 27 -4 36 -6 10 -8 21 -5 24 4 3 7 21 9
38 1 18 9 63 17 100 10 49 11 68 3 72 -8 3 -8 7 0 13 6 4 16 18 23 31 13 25
26 30 17 6z m-268 -283 c11 -6 10 -10 -5 -16 -16 -6 -15 -8 7 -17 16 -7 20
-12 12 -15 -17 -7 -35 11 -39 37 -3 21 4 25 25 11z m-8 -71 c0 -5 -4 -10 -10
-10 -5 0 -10 5 -10 10 0 6 5 10 10 10 6 0 10 -4 10 -10z m14 -36 c7 -18 0 -34
-16 -34 -5 0 -8 7 -4 15 3 8 1 15 -4 15 -6 0 -10 5 -10 10 0 16 27 11 34 -6z
m-18 -174 c0 -27 -5 -40 -14 -40 -9 0 -12 6 -8 16 3 9 6 27 6 40 0 13 4 24 9
24 5 0 8 -18 7 -40z m248 -195 c3 -9 0 -15 -9 -15 -9 0 -12 6 -9 15 4 8 7 15
9 15 2 0 5 -7 9 -15z m-289 -193 c-3 -3 -11 0 -18 7 -9 10 -8 11 6 5 10 -3 15
-9 12 -12z m258 -224 c3 -10 1 -21 -4 -24 -5 -3 -9 2 -9 10 0 9 -7 16 -16 16
-8 0 -13 4 -10 8 9 15 34 9 39 -10z m-243 -104 c0 -8 -4 -12 -10 -9 -5 3 -10
10 -10 16 0 5 5 9 10 9 6 0 10 -7 10 -16z m10 -73 c0 -6 -4 -13 -10 -16 -5 -3
-10 1 -10 9 0 9 5 16 10 16 6 0 10 -4 10 -9z m10 -137 c0 -8 -5 -12 -10 -9 -6
4 -8 11 -5 16 9 14 15 11 15 -7z m10 -89 c0 -8 -4 -15 -10 -15 -5 0 -10 7 -10
15 0 8 5 15 10 15 6 0 10 -7 10 -15z m10 -66 c0 -5 -4 -9 -10 -9 -5 0 -10 7
-10 16 0 8 5 12 10 9 6 -3 10 -10 10 -16z m7 -121 c-3 -7 -5 -2 -5 12 0 14 2
19 5 13 2 -7 2 -19 0 -25z"
    />
    <path
      d="M4728 3059 c-8 -13 -21 -42 -29 -64 -18 -53 -30 -70 -40 -54 -4 7
-10 -14 -13 -47 -4 -32 -11 -72 -16 -89 -5 -16 -16 -74 -25 -129 -8 -54 -18
-103 -21 -108 -3 -5 -6 -41 -6 -79 0 -53 -3 -72 -15 -76 -12 -5 -12 -7 -2 -14
8 -4 16 -3 20 2 3 6 12 11 20 12 8 2 19 6 25 9 6 4 44 5 84 3 61 -3 80 0 106
16 18 11 35 26 38 34 3 8 12 15 21 15 13 0 14 -4 5 -20 -6 -11 -7 -20 -3 -20
5 0 13 10 18 22 6 12 25 32 42 44 30 20 31 22 11 27 -20 6 -20 6 6 37 14 17
26 36 26 41 0 17 73 98 110 123 19 13 55 27 80 31 25 3 73 20 108 37 35 16 69
27 77 24 8 -3 17 -1 20 4 17 27 107 -2 158 -49 l35 -34 -26 -33 c-15 -19 -30
-34 -34 -34 -4 0 -26 29 -50 65 -23 36 -46 65 -50 65 -5 0 10 -26 32 -59 22
-32 40 -63 40 -69 0 -10 -132 -122 -144 -122 -3 0 -22 -16 -43 -36 -46 -45
-82 -69 -90 -60 -3 3 -1 6 5 6 7 0 12 5 12 12 0 6 -11 1 -25 -12 -18 -17 -22
-26 -13 -31 8 -5 -5 -23 -41 -56 -88 -79 -161 -156 -161 -169 0 -7 -19 -33
-42 -58 -63 -66 -88 -97 -88 -107 0 -20 -83 -129 -98 -129 -15 0 -15 -2 -2
-10 13 -8 8 -14 -11 -12 -21 3 -89 -153 -89 -202 0 -9 -5 -24 -10 -34 -21 -34
-155 -554 -174 -672 -3 -19 -10 -60 -15 -90 -18 -103 -20 -115 -25 -162 -5
-38 -3 -48 9 -48 8 0 15 -8 15 -17 0 -10 7 -90 15 -178 8 -88 15 -163 15 -167
0 -4 17 -6 38 -4 20 2 41 1 45 -1 11 -7 -23 -43 -40 -43 -17 0 -76 -30 -71
-36 14 -14 389 161 385 180 -1 6 9 12 23 14 31 5 46 17 53 42 4 14 0 20 -13
20 -10 0 -20 -9 -23 -20 -3 -11 -12 -20 -20 -20 -13 0 -13 7 0 60 15 58 32 71
34 27 1 -20 2 -20 6 -2 2 11 10 36 18 55 11 31 20 82 29 172 1 15 8 34 15 42
9 11 10 20 2 35 -6 11 -11 35 -11 55 0 39 36 86 177 232 81 84 107 103 134 99
12 -2 15 3 12 15 -7 25 34 48 43 25 9 -22 26 -7 19 16 -5 13 -2 19 7 17 8 -2
12 5 10 21 -2 18 2 22 14 17 8 -3 18 -6 21 -6 3 0 -1 -7 -8 -17 -13 -15 -12
-15 6 -5 25 14 70 61 71 76 1 6 2 17 3 24 0 7 5 10 11 7 9 -6 5 -99 -6 -117
-3 -4 -7 -38 -9 -74 -2 -53 0 -64 11 -60 8 3 14 2 14 -3 0 -5 -9 -11 -20 -14
-16 -4 -20 -14 -20 -44 0 -21 -5 -45 -10 -53 -9 -13 -11 -13 -20 0 -8 13 -10
13 -10 -2 0 -9 5 -20 10 -23 6 -3 10 -15 10 -25 0 -24 -41 -110 -53 -110 -4 0
-5 -5 -2 -10 4 -6 1 -18 -6 -26 -6 -8 -10 -17 -7 -20 5 -5 -21 -110 -38 -149
-8 -19 -7 -19 11 -2 17 17 19 17 27 2 6 -9 7 -22 5 -30 -9 -22 37 -4 75 30 18
17 58 49 88 72 30 23 87 71 125 107 39 36 73 66 77 66 12 0 108 103 114 122 4
15 9 17 20 7 11 -9 14 -7 14 9 0 12 11 37 24 57 13 19 27 54 31 78 4 23 10 47
14 52 4 6 13 28 20 50 7 22 30 85 51 140 21 55 41 114 44 130 3 17 15 68 26
115 12 47 22 114 23 150 1 36 5 67 8 70 15 13 31 150 34 295 1 88 1 152 -2
143 -5 -21 -19 -24 -25 -5 -2 6 -4 38 -3 70 l2 59 -66 43 c-229 149 -484 293
-622 351 -46 19 -96 41 -110 49 -14 8 -44 17 -67 21 -22 3 -50 15 -60 25 -11
10 -22 15 -26 12 -3 -3 -12 0 -21 7 -9 7 -18 10 -22 7 -3 -4 -12 -2 -19 4 -12
10 -38 16 -96 23 -13 1 -36 8 -51 14 -39 16 -68 15 -61 -2 4 -9 -3 -13 -20
-13 -14 0 -26 5 -26 11 0 7 -14 10 -41 8 -30 -3 -43 0 -53 13 -11 16 -13 15
-28 -6z m242 -39 c0 -5 -4 -10 -10 -10 -5 0 -10 5 -10 10 0 6 5 10 10 10 6 0
10 -4 10 -10z m50 -10 c0 -5 -4 -10 -10 -10 -5 0 -10 5 -10 10 0 6 5 10 10 10
6 0 10 -4 10 -10z m-300 -115 c0 -14 -7 -28 -15 -32 -23 -8 -33 7 -13 18 10 5
15 16 12 24 -4 8 -1 15 5 15 6 0 11 -11 11 -25z m50 -5 c0 -5 -4 -10 -9 -10
-6 0 -13 5 -16 10 -3 6 1 10 9 10 9 0 16 -4 16 -10z m41 -83 c-13 -13 -26 -3
-16 12 3 6 11 8 17 5 6 -4 6 -10 -1 -17z m83 -43 c3 -8 2 -12 -4 -9 -6 3 -10
10 -10 16 0 14 7 11 14 -7z m-210 -46 c-6 -41 -18 -67 -28 -57 -8 7 15 99 25
99 4 0 6 -19 3 -42z m996 -28 c0 -5 -2 -10 -4 -10 -3 0 -8 5 -11 10 -3 6 -1
10 4 10 6 0 11 -4 11 -10z m-795 -50 c3 -5 1 -10 -4 -10 -6 0 -11 5 -11 10 0
6 2 10 4 10 3 0 8 -4 11 -10z m-85 -19 c0 -5 -7 -11 -14 -14 -10 -4 -13 -1 -9
9 6 15 23 19 23 5z m-143 -28 c-3 -10 -8 -31 -12 -47 -4 -19 -9 -26 -16 -19
-7 7 -5 22 5 47 15 37 31 50 23 19z m718 -121 c-15 -16 -16 -15 -4 12 7 15 15
23 17 16 3 -7 -3 -19 -13 -28z m275 -7 c-7 -9 -7 -21 0 -39 5 -15 11 -58 12
-95 1 -53 5 -68 15 -64 7 3 13 1 13 -5 0 -6 -4 -12 -9 -14 -13 -4 -23 -50 -28
-133 -6 -92 -10 -134 -23 -230 -7 -44 -12 -92 -11 -107 0 -16 -5 -28 -10 -28
-7 0 -9 -10 -5 -25 4 -16 1 -34 -8 -47 -9 -12 -13 -31 -10 -43 3 -13 -2 -27
-14 -39 -27 -23 -33 -10 -20 48 5 26 7 50 3 54 -8 8 -25 -19 -18 -30 2 -5 -1
-15 -7 -23 -7 -8 -10 -15 -7 -15 3 0 1 -15 -5 -32 -11 -33 -55 -88 -70 -88 -4
0 -16 -8 -27 -17 -10 -10 -33 -31 -52 -46 -170 -140 -278 -239 -339 -311 -64
-77 -86 -85 -76 -28 3 20 13 80 21 132 8 52 24 129 36 170 11 41 23 87 26 103
3 15 9 27 14 27 5 0 9 10 9 23 0 28 31 124 62 193 6 12 10 37 11 57 0 20 4 34
8 31 13 -8 21 16 10 30 -17 20 -7 81 20 120 13 20 27 36 32 36 11 0 9 -6 -16
-58 -15 -32 -21 -55 -16 -72 5 -19 7 -20 8 -6 2 34 92 200 139 256 26 30 73
82 105 114 32 33 56 65 53 73 -4 8 2 13 16 13 12 0 19 2 16 5 -3 3 17 29 44
58 28 29 57 63 66 76 15 22 16 22 29 5 9 -12 9 -21 3 -29z m238 -7 c13 -27 22
-108 12 -108 -11 0 -28 42 -35 88 -7 46 5 56 23 20z m67 -18 c3 -5 1 -10 -4
-10 -6 0 -11 5 -11 10 0 6 2 10 4 10 3 0 8 -4 11 -10z m9 -36 c9 -22 -3 -32
-14 -14 -12 19 -12 30 -1 30 5 0 12 -7 15 -16z m66 -4 c0 -5 -7 -10 -16 -10
-8 0 -12 5 -9 10 3 6 10 10 16 10 5 0 9 -4 9 -10z m-281 -64 c-1 -30 -15 -61
-22 -50 -9 15 -16 92 -9 99 10 9 32 -26 31 -49z m229 23 c-2 -6 -8 -10 -13
-10 -5 0 -11 4 -13 10 -2 6 4 11 13 11 9 0 15 -5 13 -11z m157 -29 c3 -5 1
-10 -4 -10 -6 0 -11 5 -11 10 0 6 2 10 4 10 3 0 8 -4 11 -10z m-755 -48 c0
-11 -111 -132 -120 -132 -5 0 -3 14 3 30 6 17 15 30 19 30 5 0 24 18 44 40 34
38 54 50 54 32z m350 -36 c0 -3 -4 -8 -10 -11 -5 -3 -10 -1 -10 4 0 6 5 11 10
11 6 0 10 -2 10 -4z m-533 -61 c-9 -8 -24 -15 -34 -15 -14 0 -12 5 12 24 31
25 48 18 22 -9z m-297 -129 c0 -3 -4 -8 -10 -11 -5 -3 -10 -1 -10 4 0 6 5 11
10 11 6 0 10 -2 10 -4z m837 -2 c-3 -3 -12 -4 -19 -1 -8 3 -5 6 6 6 11 1 17
-2 13 -5z m-777 -34 c0 -5 -4 -10 -10 -10 -5 0 -10 5 -10 10 0 6 5 10 10 10 6
0 10 -4 10 -10z m995 -22 c-15 -74 -26 -108 -36 -108 -5 0 -7 -11 -3 -24 3
-13 1 -27 -6 -31 -19 -12 -22 2 -11 52 7 26 13 55 14 63 4 25 31 80 40 80 5 0
6 -15 2 -32z m-1020 -68 c7 -12 -44 -92 -55 -85 -9 5 31 94 42 95 4 0 10 -4
13 -10z m-107 -32 c-2 -6 -10 -14 -16 -16 -7 -2 -10 2 -6 12 7 18 28 22 22 4z
m247 -87 c3 -5 1 -12 -5 -16 -5 -3 -10 1 -10 9 0 18 6 21 15 7z m715 -35 c0
-3 -4 -8 -10 -11 -5 -3 -10 -1 -10 4 0 6 5 11 10 11 6 0 10 -2 10 -4z m-760
-113 c0 -7 -4 -13 -10 -13 -5 0 -10 12 -10 28 0 21 2 24 10 12 5 -8 10 -21 10
-27z m-313 -5 c-3 -8 -6 -5 -6 6 -1 11 2 17 5 13 3 -3 4 -12 1 -19z m277 -52
c-6 -16 -24 -23 -24 -8 0 10 22 33 27 28 2 -2 1 -11 -3 -20z m863 -8 c-3 -8
-6 -5 -6 6 -1 11 2 17 5 13 3 -3 4 -12 1 -19z m-1196 -49 c-5 -13 -10 -19 -10
-12 -1 15 10 45 15 40 3 -2 0 -15 -5 -28z m39 -9 c0 -5 -4 -10 -10 -10 -5 0
-10 5 -10 10 0 6 5 10 10 10 6 0 10 -4 10 -10z m1110 -30 c0 -5 -4 -10 -10
-10 -5 0 -10 5 -10 10 0 6 5 10 10 10 6 0 10 -4 10 -10z m-840 -30 c0 -5 -2
-10 -4 -10 -3 0 -8 5 -11 10 -3 6 -1 10 4 10 6 0 11 -4 11 -10z m750 -9 c0 -6
-4 -13 -10 -16 -5 -3 -10 1 -10 9 0 9 5 16 10 16 6 0 10 -4 10 -9z m-170 -11
c0 -5 -8 -10 -17 -10 -15 0 -16 2 -3 10 19 12 20 12 20 0z m-590 -30 c0 -5 -4
-10 -10 -10 -5 0 -10 5 -10 10 0 6 5 10 10 10 6 0 10 -4 10 -10z m590 -31 c-5
-9 -7 -19 -4 -22 8 -8 -34 -144 -46 -152 -6 -3 -10 0 -10 9 0 8 -3 22 -6 30
-4 11 -2 15 7 11 16 -6 23 56 7 66 -15 9 2 91 18 85 7 -3 16 0 20 6 11 17 24
-14 14 -33z m-600 -5 c0 -8 -5 -12 -10 -9 -6 4 -8 11 -5 16 9 14 15 11 15 -7z
m-210 -75 c-7 -11 -14 -19 -16 -16 -7 7 7 37 17 37 6 0 5 -9 -1 -21z m70 11
c0 -5 -5 -10 -11 -10 -5 0 -7 5 -4 10 3 6 8 10 11 10 2 0 4 -4 4 -10z m145
-87 c-8 -27 -15 -50 -15 -52 0 -3 -5 0 -11 6 -15 15 7 93 26 93 12 0 12 -7 0
-47z m-355 7 c0 -19 -32 -90 -41 -90 -12 0 -12 -2 7 53 14 42 34 63 34 37z
m180 -5 c0 -8 -4 -15 -10 -15 -5 0 -10 7 -10 15 0 8 5 15 10 15 6 0 10 -7 10
-15z m815 -35 c-10 -11 -22 -20 -27 -20 -10 0 24 38 36 39 5 1 1 -8 -9 -19z
m300 10 c3 -5 1 -10 -4 -10 -6 0 -11 5 -11 10 0 6 2 10 4 10 3 0 8 -4 11 -10z
m-1220 -40 c3 -5 1 -10 -4 -10 -6 0 -11 5 -11 10 0 6 2 10 4 10 3 0 8 -4 11
-10z m940 0 c3 -5 2 -10 -4 -10 -5 0 -13 5 -16 10 -3 6 -2 10 4 10 5 0 13 -4
16 -10z m129 -75 c-4 -8 -11 -15 -16 -15 -6 0 -5 6 2 15 7 8 14 15 16 15 2 0
1 -7 -2 -15z m-820 -41 c4 -10 1 -14 -6 -12 -15 5 -23 28 -10 28 5 0 13 -7 16
-16z m-374 -34 c0 -6 -7 -27 -15 -46 -8 -20 -12 -40 -9 -45 11 -19 -7 -28 -25
-11 -14 13 -15 19 -6 27 6 6 17 27 24 48 12 34 31 51 31 27z m-30 -140 c0 -5
-4 -10 -10 -10 -5 0 -10 5 -10 10 0 6 5 10 10 10 6 0 10 -4 10 -10z m917 -46
c-3 -3 -12 -4 -19 -1 -8 3 -5 6 6 6 11 1 17 -2 13 -5z m33 -8 c0 -3 -4 -8 -10
-11 -5 -3 -10 -1 -10 4 0 6 5 11 10 11 6 0 10 -2 10 -4z"
    />
    <path
      d="M5590 2200 c0 -5 5 -10 11 -10 5 0 7 5 4 10 -3 6 -8 10 -11 10 -2 0
-4 -4 -4 -10z"
    />
    <path d="M5611 2044 c0 -11 3 -14 6 -6 3 7 2 16 -1 19 -3 4 -6 -2 -5 -13z" />
    <path d="M5571 1993 c0 -25 1 -26 9 -8 12 27 12 35 0 35 -5 0 -10 -12 -9 -27z" />
    <path
      d="M5600 2009 c0 -5 5 -7 10 -4 6 3 10 8 10 11 0 2 -4 4 -10 4 -5 0 -10
-5 -10 -11z"
    />
    <path
      d="M5560 1950 c0 -5 5 -10 10 -10 6 0 10 5 10 10 0 6 -4 10 -10 10 -5 0
-10 -4 -10 -10z"
    />
    <path
      d="M5597 1944 c-4 -4 -7 -14 -7 -23 0 -11 3 -12 11 -4 6 6 10 16 7 23
-2 6 -7 8 -11 4z"
    />
    <path
      d="M5565 1850 c3 -5 13 -10 21 -10 8 0 12 5 9 10 -3 6 -13 10 -21 10 -8
0 -12 -4 -9 -10z"
    />
    <path d="M5547 1823 c-4 -3 -7 -18 -7 -31 0 -32 11 -23 14 12 3 28 3 30 -7 19z" />
    <path
      d="M5570 1789 c0 -5 5 -7 10 -4 6 3 10 8 10 11 0 2 -4 4 -10 4 -5 0 -10
-5 -10 -11z"
    />
    <path
      d="M5541 1750 c-7 -4 -12 -12 -10 -18 3 -7 10 -6 22 3 20 14 9 29 -12
15z"
    />
    <path
      d="M4525 3040 c-3 -5 -1 -10 4 -10 6 0 11 5 11 10 0 6 -2 10 -4 10 -3 0
-8 -4 -11 -10z"
    />
    <path d="M2192 3005 c0 -16 2 -22 5 -12 2 9 2 23 0 30 -3 6 -5 -1 -5 -18z" />
    <path d="M4662 3000 c0 -14 2 -19 5 -12 2 6 2 18 0 25 -3 6 -5 1 -5 -13z" />
    <path d="M1553 2799 c-1 -10 2 -19 8 -19 11 0 12 27 1 34 -4 2 -9 -4 -9 -15z" />
    <path d="M2512 2630 c0 -14 2 -19 5 -12 2 6 2 18 0 25 -3 6 -5 1 -5 -13z" />
    <path d="M1540 2631 c0 -6 4 -13 10 -16 6 -3 7 1 4 9 -7 18 -14 21 -14 7z" />
    <path d="M2501 2574 c0 -11 3 -14 6 -6 3 7 2 16 -1 19 -3 4 -6 -2 -5 -13z" />
    <path d="M2501 2534 c0 -11 3 -14 6 -6 3 7 2 16 -1 19 -3 4 -6 -2 -5 -13z" />
    <path
      d="M2495 2490 c3 -5 8 -10 11 -10 2 0 4 5 4 10 0 6 -5 10 -11 10 -5 0
-7 -4 -4 -10z"
    />
    <path d="M3291 2454 c0 -11 3 -14 6 -6 3 7 2 16 -1 19 -3 4 -6 -2 -5 -13z" />
    <path
      d="M7267 2428 c-7 -4 6 -8 28 -8 22 0 47 5 55 10 11 7 3 9 -28 7 -24 -1
-49 -5 -55 -9z"
    />
    <path
      d="M7005 2420 c-44 -4 -157 -8 -252 -9 -94 -1 -182 -5 -195 -10 -18 -8
-11 -10 36 -10 51 -1 57 -3 46 -16 -7 -8 -23 -15 -35 -15 -13 0 -25 -5 -27
-11 -3 -9 -10 -9 -27 1 -16 8 -30 9 -45 3 -43 -20 -88 -32 -100 -27 -8 3 -16
-2 -20 -11 -9 -24 -28 -7 -21 18 6 21 5 21 -6 3 -11 -18 -20 -62 -59 -276 -6
-36 -15 -74 -20 -85 -5 -11 -11 -36 -13 -55 -7 -46 -55 -250 -66 -275 -9 -21
-43 -153 -68 -265 -8 -36 -17 -72 -21 -80 -6 -16 -9 -33 -14 -67 -1 -13 -6
-23 -11 -23 -5 0 -6 -12 -3 -27 4 -19 0 -38 -14 -58 -11 -16 -19 -41 -19 -55
1 -17 3 -19 6 -8 2 10 9 18 14 18 5 0 9 5 9 12 0 27 34 98 46 98 16 0 16 -8 5
-67 -4 -23 -5 -42 -2 -41 22 2 41 -4 41 -12 0 -6 -6 -10 -12 -9 -30 4 -39 -3
-55 -36 -13 -27 -23 -35 -43 -35 -19 0 -30 -7 -38 -25 -6 -14 -9 -25 -6 -25
15 0 277 188 294 212 3 4 22 18 43 32 21 14 43 31 50 36 29 25 182 128 235
158 31 18 144 98 250 177 237 177 610 444 714 510 55 35 78 56 78 70 0 18 -5
20 -40 17 -25 -3 -40 0 -40 7 0 6 17 11 40 11 29 0 42 5 50 20 9 18 7 20 -17
21 -15 1 -34 1 -40 0 -7 -1 -13 3 -13 9 0 5 7 10 15 10 8 0 15 4 15 8 0 7 -56
2 -250 -22 -19 -3 -39 -5 -43 -5 -5 -1 -5 -5 -2 -11 4 -6 -4 -6 -22 1 -30 11
-125 -8 -103 -21 8 -5 7 -9 -4 -13 -10 -4 -16 -1 -16 7 0 9 -8 12 -24 9 -16
-3 -23 -10 -19 -19 3 -8 0 -14 -6 -14 -6 0 -10 6 -8 13 1 7 -6 11 -17 9 -33
-6 -11 20 40 47 27 14 51 28 54 31 21 23 119 84 158 98 74 29 151 66 152 75 0
4 -18 7 -41 7 -22 0 -38 -4 -35 -9 10 -16 -40 -28 -104 -25 -63 4 -102 -7 -87
-23 5 -4 11 -2 15 4 5 8 18 10 37 5 l30 -8 -28 -18 c-31 -21 -54 -16 -66 16
-8 21 -14 23 -77 22 -49 -2 -71 -7 -80 -18 -12 -18 -54 -22 -54 -6 0 6 -8 10
-17 10 -14 0 -15 -2 -5 -9 11 -7 10 -10 -3 -15 -24 -9 -25 -8 -25 12 0 15 -6
18 -30 14 -17 -2 -30 0 -30 6 0 18 107 13 114 -5 3 -8 10 -11 16 -8 6 4 8 10
5 15 -5 8 65 26 135 33 19 2 -1 4 -45 4 -44 0 -116 -3 -160 -7z m-225 -40 c0
-5 9 -10 20 -10 11 0 20 5 20 10 0 6 23 10 51 10 27 0 48 -4 45 -8 -9 -15
-167 -37 -240 -33 -24 1 -27 3 -16 16 7 9 21 13 30 10 9 -3 28 -1 41 4 32 13
49 13 49 1z m488 -62 c-6 -18 -28 -21 -28 -4 0 9 7 16 16 16 9 0 14 -5 12 -12z
m-168 -7 c0 -13 -21 -27 -65 -42 -22 -8 -43 -18 -46 -23 -4 -4 -13 -6 -20 -4
-13 4 -21 0 -54 -29 -21 -20 -35 -15 -31 10 2 14 9 21 21 19 9 -2 26 5 36 14
11 10 48 28 82 40 72 26 77 27 77 15z m-680 -69 c-4 -15 -17 -47 -28 -72 -11
-25 -26 -66 -32 -92 -7 -27 -16 -48 -20 -48 -12 0 -21 45 -10 48 6 2 7 14 4
27 -3 12 -1 26 5 30 6 3 8 11 5 17 -4 6 -2 8 3 5 6 -4 13 3 16 14 4 16 2 19
-10 15 -13 -5 -14 -1 -9 25 3 17 6 40 6 51 0 15 5 19 20 15 11 -3 23 -1 26 4
13 21 33 -11 24 -39z m800 43 c0 -12 -37 -43 -85 -70 -27 -15 -53 -32 -56 -37
-3 -5 -23 -11 -44 -15 -29 -5 -37 -3 -33 8 2 7 13 16 24 19 10 3 40 19 65 37
25 17 58 35 73 39 14 3 29 10 32 15 6 10 24 12 24 4z m-344 -34 c-3 -4 -19
-14 -36 -21 -20 -8 -30 -19 -28 -29 4 -18 29 -22 40 -7 4 6 12 5 21 -3 13 -10
12 -15 -9 -38 -19 -21 -26 -23 -39 -13 -8 6 -14 15 -13 18 3 15 -15 42 -27 42
-32 0 -23 22 17 39 46 21 83 27 74 12z m-176 -31 c-28 -22 -59 -34 -67 -27 -2
3 0 15 7 26 8 16 20 21 48 21 l37 0 -25 -20z m842 -12 c-12 -12 -132 -25 -120
-13 8 9 69 22 108 24 18 1 21 -2 12 -11z m-444 -66 c2 -7 -7 -12 -23 -12 -24
0 -26 2 -15 15 14 17 31 16 38 -3z m-328 -10 c0 -5 -11 -14 -25 -20 -14 -6
-25 -18 -25 -27 0 -18 -26 -20 -36 -3 -9 14 40 58 67 58 10 0 19 -4 19 -8z
m740 -62 c0 -5 -9 -10 -21 -10 -11 0 -17 5 -14 10 3 6 13 10 21 10 8 0 14 -4
14 -10z m-815 -19 c3 -6 -4 -15 -15 -21 -16 -8 -20 -8 -20 3 0 25 23 36 35 18z
m-243 -52 c-32 -129 -70 -230 -93 -244 -18 -12 -1 69 31 150 16 39 31 80 35
93 7 24 32 25 27 1z m568 6 c0 -8 -7 -15 -15 -15 -16 0 -20 12 -8 23 11 12 23
8 23 -8z m-680 -8 c0 -7 -5 -18 -10 -23 -6 -6 -13 -34 -17 -63 -3 -28 -10 -54
-14 -57 -14 -8 -10 54 6 92 8 19 12 41 9 49 -4 9 0 15 10 15 9 0 16 -6 16 -13z
m780 9 c0 -3 -4 -8 -10 -11 -5 -3 -10 -1 -10 4 0 6 5 11 10 11 6 0 10 -2 10
-4z m124 -14 c10 -16 -147 -122 -160 -109 -3 2 23 30 57 61 57 52 91 68 103
48z m-367 -49 c-3 -3 -11 -2 -17 2 -8 5 -7 11 2 22 12 15 13 14 16 -1 2 -10 1
-20 -1 -23z m199 22 c-21 -16 -32 -13 -21 4 3 6 14 11 23 11 15 -1 15 -2 -2
-15z m-106 -15 c0 -5 -5 -10 -11 -10 -5 0 -7 5 -4 10 3 6 8 10 11 10 2 0 4 -4
4 -10z m-30 -38 c0 -19 -40 -70 -127 -162 -34 -36 -53 -49 -53 -38 0 9 6 23
14 31 8 8 26 31 40 52 35 51 94 115 106 115 5 0 10 5 10 10 0 6 2 10 5 10 3 0
5 -8 5 -18z m85 -2 c-3 -5 -15 -10 -26 -10 -11 0 -17 5 -14 10 3 6 15 10 26
10 11 0 17 -4 14 -10z m-325 -87 c0 -5 -5 -15 -10 -23 -7 -12 -12 -12 -22 -2
-10 10 -10 15 2 22 18 12 30 13 30 3z m-435 -133 c3 -5 -1 -10 -10 -10 -9 0
-13 5 -10 10 3 6 8 10 10 10 2 0 7 -4 10 -10z m3 -94 c-4 -18 1 -27 16 -34 19
-10 19 -11 -8 -11 -16 -1 -26 -4 -23 -7 8 -8 -24 -64 -35 -64 -12 0 -10 24 7
64 8 20 13 36 10 36 -3 0 -1 9 5 20 15 28 33 25 28 -4z m336 -99 c-27 -29 -53
-54 -59 -56 -5 -2 0 7 13 21 12 13 22 30 22 36 0 17 64 75 68 62 2 -6 -18 -34
-44 -63z m-134 27 c-18 -21 -24 -10 -9 18 8 14 14 18 17 10 2 -7 -2 -19 -8
-28z m-183 -6 c-3 -8 -6 -5 -6 6 -1 11 2 17 5 13 3 -3 4 -12 1 -19z m413 -37
c0 -13 -56 -52 -64 -44 -8 9 34 53 51 53 7 0 13 -4 13 -9z m-499 -74 c-18 -18
-22 -2 -9 34 l13 34 3 -29 c2 -16 -1 -33 -7 -39z m49 -1 c0 -3 -4 -8 -10 -11
-5 -3 -10 -1 -10 4 0 6 5 11 10 11 6 0 10 -2 10 -4z m-50 -32 c0 -8 -5 -12
-10 -9 -6 4 -8 11 -5 16 9 14 15 11 15 -7z m130 -39 c0 -8 -4 -15 -10 -15 -5
0 -10 7 -10 15 0 8 5 15 10 15 6 0 10 -7 10 -15z m-165 -55 c3 -5 -1 -10 -10
-10 -9 0 -13 5 -10 10 3 6 8 10 10 10 2 0 7 -4 10 -10z m5 -180 c0 -5 -2 -10
-4 -10 -3 0 -8 5 -11 10 -3 6 -1 10 4 10 6 0 11 -4 11 -10z"
    />
    <path d="M7418 2423 c6 -2 18 -2 25 0 6 3 1 5 -13 5 -14 0 -19 -2 -12 -5z" />
    <path
      d="M1205 2400 c3 -5 11 -10 16 -10 6 0 7 5 4 10 -3 6 -11 10 -16 10 -6
0 -7 -4 -4 -10z"
    />
    <path
      d="M1165 2318 c-35 -155 -45 -336 -30 -568 4 -52 7 -115 9 -140 3 -66
27 -204 37 -215 5 -5 9 -19 9 -32 0 -52 86 -257 103 -246 6 4 7 1 2 -7 -5 -8
-1 -18 10 -27 11 -7 16 -13 12 -13 -4 0 -3 -9 3 -20 6 -11 15 -18 21 -15 5 4
9 -1 9 -9 0 -25 50 -91 67 -88 11 2 14 -2 10 -12 -4 -11 3 -21 24 -31 16 -9
39 -25 50 -36 10 -10 26 -19 34 -19 8 0 24 -9 34 -19 10 -10 29 -22 40 -26 20
-6 20 -5 -3 20 -19 20 -24 35 -21 58 4 29 4 30 -4 7 -9 -25 -13 -18 -15 30 -1
14 -7 26 -16 26 -8 1 -19 2 -24 3 -6 0 -5 6 1 12 12 12 6 42 -7 34 -4 -2 -7 7
-7 21 0 15 -7 30 -14 35 -8 5 -9 9 -3 9 9 0 8 16 -1 58 -8 31 -17 77 -22 101
-4 25 -14 46 -21 49 -9 3 -11 -3 -7 -21 4 -14 2 -28 -4 -31 -6 -4 -11 -18 -11
-32 0 -14 -4 -22 -10 -19 -5 3 -8 16 -6 28 3 12 5 42 5 66 1 41 2 43 27 37 23
-6 25 -5 19 15 -4 13 -7 47 -7 77 0 48 -3 53 -19 49 -22 -6 -26 11 -4 19 21 8
28 40 15 65 -7 12 -8 24 -4 28 5 3 9 20 10 36 1 17 4 88 8 159 5 98 4 132 -6
144 -10 12 -10 14 0 8 9 -5 12 3 13 31 0 21 2 45 3 53 13 61 16 123 7 110 -8
-11 -11 -12 -11 -2 0 8 9 16 20 19 24 6 24 7 8 35 -47 82 -214 249 -248 247
-11 -1 -10 -3 3 -6 9 -2 17 -11 17 -19 0 -20 -8 -18 -42 11 -16 14 -33 25 -38
25 -5 0 -16 -32 -25 -72z m215 -68 c0 -5 -2 -10 -4 -10 -3 0 -8 5 -11 10 -3 6
-1 10 4 10 6 0 11 -4 11 -10z m45 -50 c3 -5 1 -10 -4 -10 -6 0 -11 5 -11 10 0
6 2 10 4 10 3 0 8 -4 11 -10z m49 -56 c19 -19 20 -24 3 -24 -7 0 -18 9 -25 20
-15 24 0 27 22 4z m-311 -99 c4 -8 2 -17 -3 -20 -6 -4 -10 3 -10 14 0 25 6 27
13 6z m-3 -116 c0 -22 -4 -38 -8 -35 -8 5 -4 76 4 76 2 0 4 -18 4 -41z m-3
-171 c-2 -13 -4 -3 -4 22 0 25 2 35 4 23 2 -13 2 -33 0 -45z m293 -128 c0 -5
-4 -10 -10 -10 -5 0 -10 5 -10 10 0 6 5 10 10 10 6 0 10 -4 10 -10z m30 -520
c0 -5 -4 -10 -10 -10 -5 0 -10 5 -10 10 0 6 5 10 10 10 6 0 10 -4 10 -10z"
    />
    <path
      d="M1576 2345 c4 -8 11 -15 16 -15 6 0 5 6 -2 15 -7 8 -14 15 -16 15 -2
0 -1 -7 2 -15z"
    />
    <path d="M4980 2285 c-7 -9 -10 -18 -7 -21 3 -3 10 4 17 15 13 25 8 27 -10 6z" />
    <path
      d="M4394 2267 c1 -19 5 -22 26 -18 18 4 20 6 8 9 -10 2 -18 10 -18 18 0
8 -4 14 -9 14 -5 0 -8 -10 -7 -23z"
    />
    <path
      d="M4945 2240 c-3 -5 -1 -10 4 -10 6 0 11 5 11 10 0 6 -2 10 -4 10 -3 0
-8 -4 -11 -10z"
    />
    <path
      d="M7670 2240 c0 -5 7 -10 15 -10 8 0 15 5 15 10 0 6 -7 10 -15 10 -8 0
-15 -4 -15 -10z"
    />
    <path d="M7718 2243 c7 -3 16 -2 19 1 4 3 -2 6 -13 5 -11 0 -14 -3 -6 -6z" />
    <path
      d="M7710 2172 c-8 -4 -16 -17 -17 -30 -3 -23 -3 -23 22 -5 42 31 39 55
-5 35z"
    />
    <path d="M1790 2146 c0 -31 6 -34 13 -6 3 11 1 23 -4 26 -5 3 -9 -6 -9 -20z" />
    <path
      d="M4109 2109 c-23 -19 -23 -20 -2 -10 12 6 25 16 28 21 10 16 -1 12
-26 -11z"
    />
    <path d="M3663 1953 c-1 -33 0 -35 7 -13 11 34 12 50 2 50 -4 0 -8 -17 -9 -37z" />
    <path
      d="M3306 1872 c-4 -7 -3 -19 3 -26 6 -7 9 -15 7 -17 -10 -9 -16 -119 -7
-119 5 0 11 29 13 65 3 74 -3 117 -16 97z"
    />
    <path d="M1772 1725 c0 -16 2 -22 5 -12 2 9 2 23 0 30 -3 6 -5 -1 -5 -18z" />
    <path
      d="M4054 1721 c20 -22 26 -25 26 -13 0 4 -10 13 -22 21 -23 14 -23 14
-4 -8z"
    />
    <path d="M3297 1694 c-4 -4 -7 -17 -7 -28 1 -19 1 -20 11 -3 11 19 8 43 -4 31z" />
    <path d="M3282 1455 c0 -16 2 -22 5 -12 2 9 2 23 0 30 -3 6 -5 -1 -5 -18z" />
    <path
      d="M1750 1426 c0 -9 5 -16 10 -16 6 0 10 4 10 9 0 6 -4 13 -10 16 -5 3
-10 -1 -10 -9z"
    />
    <path d="M3597 1421 c-4 -17 -3 -21 5 -13 5 5 8 16 6 23 -3 8 -7 3 -11 -10z" />
    <path d="M3275 1409 c-4 -6 -5 -12 -2 -15 2 -3 7 2 10 11 7 17 1 20 -8 4z" />
    <path
      d="M3265 1310 c-3 -5 -1 -10 4 -10 6 0 11 5 11 10 0 6 -2 10 -4 10 -3 0
-8 -4 -11 -10z"
    />
    <path
      d="M3574 1202 c-6 -4 -8 -16 -4 -27 6 -17 7 -16 12 8 3 15 5 27 4 27 0
0 -6 -4 -12 -8z"
    />
    <path d="M5215 1196 c-11 -8 -14 -15 -8 -19 6 -4 16 0 23 8 17 21 8 28 -15 11z" />
    <path d="M5416 1113 c-6 -14 -5 -15 5 -6 7 7 10 15 7 18 -3 3 -9 -2 -12 -12z" />
    <path
      d="M6043 1020 c-1 -11 2 -20 8 -20 5 0 9 9 9 20 0 11 -4 20 -8 20 -4 0
-8 -9 -9 -20z"
    />
    <path
      d="M5073 1023 c-7 -2 -13 -11 -13 -18 0 -7 -6 -16 -12 -18 -8 -4 -9 -6
-2 -6 7 -1 19 10 28 24 9 14 15 25 14 24 -2 0 -9 -3 -15 -6z"
    />
    <path
      d="M5387 1023 c-7 -13 -18 -83 -13 -83 7 0 28 81 23 87 -3 2 -7 1 -10
-4z"
    />
    <path d="M5785 954 c-28 -22 -29 -24 -8 -24 12 0 27 9 33 21 16 30 9 31 -25 3z" />
    <path d="M3917 939 c7 -7 15 -10 18 -7 3 3 -2 9 -12 12 -14 6 -15 5 -6 -5z" />
    <path
      d="M4980 894 c0 -8 5 -12 10 -9 6 3 10 10 10 16 0 5 -4 9 -10 9 -5 0
-10 -7 -10 -16z"
    />
    <path d="M1925 819 c-11 -17 1 -21 15 -4 8 9 8 15 2 15 -6 0 -14 -5 -17 -11z" />
    <path d="M1687 809 c7 -7 15 -10 18 -7 3 3 -2 9 -12 12 -14 6 -15 5 -6 -5z" />
    <path
      d="M4341 815 c-2 -5 -5 -86 -6 -180 -2 -115 0 -160 6 -138 9 30 8 342 0
318z"
    />
    <path d="M1655 780 c3 -5 16 -10 28 -9 21 0 21 1 2 9 -28 12 -37 12 -30 0z" />
    <path
      d="M3220 764 c0 -8 5 -12 10 -9 6 3 10 10 10 16 0 5 -4 9 -10 9 -5 0
-10 -7 -10 -16z"
    />
    <path d="M5296 655 c-3 -10 1 -15 14 -15 25 0 34 16 14 24 -21 8 -21 8 -28 -9z" />
    <path
      d="M5260 620 c-8 -5 -10 -10 -5 -10 6 0 17 5 25 10 8 5 11 10 5 10 -5 0
-17 -5 -25 -10z"
    />
    <path
      d="M3197 573 c-4 -3 -7 -11 -7 -17 0 -6 5 -5 12 2 6 6 9 14 7 17 -3 3
-9 2 -12 -2z"
    />
    <path
      d="M4925 530 c-3 -5 -1 -10 4 -10 6 0 11 5 11 10 0 6 -2 10 -4 10 -3 0
-8 -4 -11 -10z"
    />
    <path d="M4326 432 c-4 -18 -5 -36 -2 -39 11 -12 17 5 14 39 l-3 33 -9 -33z" />
    <path d="M3186 423 c-6 -14 -5 -15 5 -6 7 7 10 15 7 18 -3 3 -9 -2 -12 -12z" />
    <path d="M3838 153 c7 -3 16 -2 19 1 4 3 -2 6 -13 5 -11 0 -14 -3 -6 -6z" />
    <path
      d="M3160 131 c0 -5 5 -13 10 -16 6 -3 10 -2 10 4 0 5 -4 13 -10 16 -5 3
-10 2 -10 -4z"
    />
  </g>
</svg>
